<svg fill="none" height="49" viewBox="0 0 247 49" width="247" xmlns="http://www.w3.org/2000/svg"><g fill="#302827"><path d="m83.2971 29.9408c0-2.2824-.2617-2.6384-3.2037-2.9944v-1.8427h14.4274v1.8427c-2.9001.356-3.1724.7015-3.1724 2.9944v7.2975c-3.0362 1.9369-7.2556 2.942-11.967 2.942-10.4279.0105-15.9246-6.4599-15.9246-15.087 0-10.2919 7.5173-16.66801 16.8041-16.66801 3.9995 0 7.3917.92135 9.9463 2.58601l.1361 7.6954h-2.1463c-1.0993-5.2349-3.476-8.0932-7.6011-8.0932-5.6328 0-8.0094 5.8422-8.0094 13.2862 0 7.4755 2.5546 14.0296 8.0094 14.0296 1.0994 0 1.8846-.0838 2.7222-.5235v-7.465z"/><path d="m117.294 25.2399v1.0993h-14.03c-.084 5.2349 2.817 8.4806 6.816 8.4806 2.816 0 4.879-1.0051 6.554-3.2038l.827.5235c-1.183 4.8371-4.575 8.0408-10.114 8.0408-6.512 0-11.4327-4.3554-11.4327-11.7366 0-7.8315 5.4027-12.8465 11.7367-12.8465 6.387.0104 9.643 4.0518 9.643 9.6427zm-13.988-.9318h7.036c0-4.2613-.827-6.8578-3.204-6.8578-2.429 0-3.612 2.7745-3.832 6.8578z"/><path d="m128.78 16.0479h5.141v2.3766h-5.141v14.5531c0 2.1149.827 3.0363 2.502 3.0363 1.142 0 2.115-.3874 3.173-1.0994l.659.9633c-1.675 2.7221-4.135 4.3135-7.653 4.3135-4.041 0-6.858-2.0206-6.858-7.2137v-14.5531h-2.502v-1.4448c3.518-1.3192 6.69-3.8738 8.972-6.8996h1.707z"/><path d="m135.815 39.752v-1.8427c2.942-.3036 3.204-.6596 3.204-2.942v-21.2956c0-2.2825-.262-2.6384-3.204-2.9421v-1.85314h14.469c12.177 0 17.904 6.51224 17.904 15.08704 0 9.9464-6.596 15.7885-16.888 15.7885zm11.831-28.8025v23.6618c0 2.5966 1.005 3.0782 2.994 3.0782h.398c4.963 0 8.219-5.057 8.219-12.8884 0-8.4492-3.738-13.8516-10.47-13.8516z"/><path d="m170.259 28.3599c0-7.3917 5.099-12.7522 12.313-12.7522 7.255 0 12.27 4.6172 12.27 11.8309 0 7.3917-5.098 12.7522-12.312 12.7522-7.266 0-12.271-4.6171-12.271-11.8309zm15.956 1.0156c0-7.2137-1.005-11.9147-3.874-11.9147-2.638 0-3.476 3.3818-3.476 8.9727 0 7.2137 1.058 11.9147 3.874 11.9147 2.649 0 3.476-3.3923 3.476-8.9727z"/><path d="m213.585 23.481c0-1.937-.659-3.0782-2.942-3.0782-1.413 0-2.638.3979-3.779.9632v14.951c0 1.4029.618 1.5809 2.376 1.7066v1.7066h-12.93v-1.7066c1.759-.1361 2.461-.3037 2.461-1.7066v-15.4326l-2.419-1.4971v-1.2355l9.193-2.5546h1.497l-.178 4.3973c1.675-2.1149 4.219-4.3973 8.177-4.3973 4.261 0 6.69 2.3766 6.69 7.2137v13.4956c0 1.403.701 1.581 2.46 1.7066v1.7066h-12.93v-1.7066c1.759-.1361 2.335-.3036 2.335-1.7066z"/><path d="m246.398 25.2399v1.0993h-14.03c-.084 5.2349 2.817 8.4806 6.816 8.4806 2.816 0 4.879-1.0051 6.554-3.2038l.827.5235c-1.193 4.8371-4.575 8.0408-10.114 8.0408-6.512 0-11.433-4.3554-11.433-11.7366 0-7.8315 5.403-12.8465 11.737-12.8465 6.387.0104 9.643 4.0518 9.643 9.6427zm-13.988-.9318h7.036c0-4.2613-.827-6.8578-3.204-6.8578-2.429 0-3.612 2.7745-3.832 6.8578z"/><path d="m23.7875 48.0645c-13.1187 0-23.7875-10.6583-23.7875-23.777s10.6688-23.7875 23.7875-23.7875v8.14554c-8.6272 0-15.64196 7.01476-15.64196 15.64196 0 8.6271 7.01476 15.6419 15.64196 15.6419 8.6271 0 15.6419-7.0148 15.6419-15.6419 0-2.0521-.3978-4.0623-1.1621-5.926l-14.4379 14.8672-10.2814-10.2814 5.7584-5.7584 4.4287 4.4288 15.4954-15.96654 2.9001 3.5074c3.497 4.24024 5.4339 9.62174 5.4339 15.12894 0 13.1187-10.6688 23.777-23.777 23.777z"/></g></svg>